<?xml version="1.0" encoding="UTF-8"?><svg id="Calque_2" xmlns="http://www.w3.org/2000/svg" viewBox="0 0 256.1 218.75"><defs><style>.cls-1{fill:#fff;}</style></defs><g id="Calque_1-2"><g id="NYtGhN.tif"><path class="cls-1" d="m66.8,93.95c-5.42-3.14-7.18-7.95-6.97-13.72.18-4.88,2.86-7.74,6.44-10.22.95-.66,1.09-1.26.97-2.43-.25-2.41-.31-4.89-.05-7.29.38-3.45,2.64-5.76,5.42-7.64,1.09-.73,2.16-1.44,1.61-3.24-1.93-6.24.86-10.82,5.58-14.51,1.13-.89,1.59-1.49,1.16-3-1.98-6.91,2.82-13.67,9.39-15.53,3.62-1.03,7.35-1.67,11.15-1.5,1.8.08,2.68-.44,2.96-2.5,1.16-8.58,4.75-11.33,12.79-11.98,7.62-.61,15.34-.41,22.98-.04,5.57.27,9.86,2.78,12.32,8.42,3.55,8.14,7.75,16,11.63,23.99.9,1.85,1.78,3.72,2.44,5.67.72,2.12,2.14,2.84,4.24,2.99,4.7.34,8.81,1.84,12.14,5.53,2.69,2.97,2.62,6.36,2.34,9.79-.17,2.08-.5,3.44,1.97,4.67,3.94,1.96,5.92,8.24,4.71,13.65-.35,1.56-.26,2.27,1.18,3.22,5.47,3.57,7.3,8.68,5.64,15.28-.28,1.11-.07,1.6.91,2.12,3.68,1.93,5.79,5.05,6.48,9.1.25,1.48,1.46,1.89,2.45,2.15,1.11.29,1.2-1.08,1.55-1.84,3.41-7.35,10.47-9.77,17.7-6.09,3.52,1.79,6.43,4.58,9.86,6.38,4.23,2.22,7.76,5.37,11.85,7.77,3.99,2.35,6.4,6.45,6.39,11.52-.04,13.98-.01,27.97-.01,41.95,0,12.72-.15,25.44.07,38.16.09,5.34-2.32,9.24-6.09,12.31-1.97,1.6-4.91,1.66-7.49,1.58-2.7-.08-5.25-.85-7.57-2.43-6.27-4.27-12.54-8.56-18.95-12.62-4.78-3.04-7.56-7.37-6.88-12.8.59-4.74-2.28-6.3-5.18-8.33-4.78-3.35-9.76-6.41-14.53-9.78-6.12-4.33-12.49-8.34-18.76-12.46-3.95-2.6-7.9-5.23-11.8-7.9-2.64-1.81-4.88-.07-7.16.28-3.22.49-6.4.91-9.64.91-12.63,0-25.26.2-37.88-.09-6.77-.16-12.4,2.34-17.76,5.91-8.26,5.49-16.39,11.18-24.71,16.58-4.62,3-8.92,6.51-13.87,9.01-.68.34-.73.97-.73,1.61,0,1.08-.05,2.17.01,3.25.42,7.48-3.9,11.61-9.8,15.28-5.4,3.35-10.85,6.75-15.9,10.64-4.69,3.62-9.76,3.8-14.68,1.75-4.69-1.95-6.69-6.35-6.7-11.43-.03-20.57-.01-41.14-.01-61.7,0-5.95.05-11.91-.02-17.86-.07-6.12,1.67-10.64,7.55-14.14,5.69-3.39,11.22-7.29,16.66-11.2,3.48-2.5,7.32-4.82,12.18-3.55,4.37,1.13,7.76,3.34,9.39,7.57.75,1.94,1.74,1.64,3,1.04.89-.42,1.69-1.04,2.5-1.6,5.09-3.48,10.17-6.96,15.51-10.61Zm-19.7,81.22c2.78-1.72,5.06-3.08,7.28-4.53,2.41-1.57,4.57-3.7,7.06-4.91,4.55-2.21,8.17-5.68,12.52-8.14,4.81-2.72,9.28-6.04,13.9-9.08,4.53-2.98,9.74-2.99,14.83-3.05,13.98-.17,27.96-.08,41.93-.12,4.94-.01,9.38-1.78,13.32-4.56,5.59-3.96,10.95-8.23,16.45-12.33,5.23-3.9,10.5-7.74,15.75-11.63,1.65-1.22,2.91-2.92,4.77-3.88,3-1.56,4.29-4.79,2.93-7.6-1.08-2.22-4.25-4.08-7.62-2.44-3.12,1.52-6.4,2.76-9.55,4.2-5.36,2.45-10.71,4.93-16.08,7.35-1.77.8-3.51,1-5.11-.21-1.34-1.01-1.62-2.57-1.36-4.14.32-1.93,1.44-3.36,3.4-3.66,1.58-.24,2.84-.97,4.2-1.66,3.2-1.63,6.35-3.48,9.72-4.66,4.77-1.67,9.11-4.14,13.58-6.4,1.35-.68,1.93-1.79,2.07-3.23.38-3.89-3.24-6.93-7.06-5.55-4.29,1.55-8.74,2.59-12.98,4.36-4.43,1.85-8.91,3.75-13.68,4.73-1.99.41-4.73-.72-5.19-2.29-.76-2.58.09-4.36,2.54-5.3,4.94-1.9,9.82-4,14.86-5.62,3.93-1.26,7.84-2.51,11.56-4.28,2.63-1.25,3.72-3.32,3.14-5.59-.72-2.85-2.04-3.8-5.32-3.74-1.62.03-3.28-.05-4.85.28-7.37,1.54-14.72,3.17-22.07,4.83-2.96.67-5.35-.52-6.12-3.25-.61-2.14.84-4.27,3.71-5.01,3.9-1,7.83-1.87,11.78-2.65,4.12-.81,8.35-1.02,12.42-2.22,2.16-.63,3.52-2.09,3.57-4.24.05-2.2-1.41-3.87-3.5-4.25-6.36-1.17-12.73-2.31-19.18-2.86-9.17-.78-18.07,1.18-27,2.74-.84.15-1.61.29-1.6,1.41.07,6.16-3.62,10.09-8.07,13.54-.65.51-.94.74-.59,1.68,3.21,8.59-.64,14.03-6.57,18.56-1.22.93-1.6,1.54-1.03,2.99,2.58,6.64-.42,14.94-6.82,18.87-5.9,3.62-11.64,3.88-17.71.02-3.19-2.04-6.05-4.45-9.04-6.7-1.75-1.32-3.12-1.42-4.82-.12-2.14,1.64-4.23,3.38-6.56,4.69-5.72,3.22-10.85,7.31-16.42,10.73-1.17.72-1.45,1.6-1.45,2.9.05,17.86.04,35.72.05,53.58,0,.61,0,1.22,0,2.38Zm-38.97-10.33c0,11.37,0,22.73,0,34.1,0,2.35-.12,4.7.03,7.03.23,3.57,3.68,5.64,6.5,3.89,4.03-2.49,8.04-5.02,11.9-7.76,2.11-1.5,4.19-2.96,6.48-4.23,3.59-1.99,5.56-4.83,5.51-9.56-.27-25.34-.12-50.69-.12-76.04,0-.81.06-1.63-.03-2.43-.31-2.85-2.2-4.3-5.03-3.91-1.73.24-3.33.9-4.62,2.02-3.75,3.26-8.26,5.38-12.22,8.32-1.51,1.12-2.85,2.68-4.54,3.32-3.09,1.17-3.91,3.23-3.89,6.27.08,12.99.03,25.98.03,38.97Zm209.46-14.25h-.01c0,13.62.04,27.24-.04,40.85-.01,2.05.67,3.36,2.35,4.46,6.71,4.39,13.54,8.61,20,13.39,1.38,1.02,2.88,1.91,4.72.87,1.92-1.08,2.8-2.67,2.78-4.87-.04-3.61,0-7.21,0-10.82,0-23-.02-46,.03-68.99,0-2.23-.43-4.07-2.38-5.37-6.1-4.06-12.18-8.15-18.28-12.21-1.11-.74-2.22-1.45-3.58-1.79-3.71-.9-5.56.43-5.56,4.16,0,13.44,0,26.88,0,40.31Zm-52.86-4.26c14.94,9.96,29.39,19.59,44.2,29.47,0-19.28,0-37.93,0-56.58,0-.27.04-.55-.02-.81-.3-1.36-3.62-3.59-4.23-2.82-1.75,2.22-4.16,3.57-6.27,5.32-7.57,6.3-15.74,11.8-23.49,17.85-3.21,2.51-6.28,5.22-10.19,7.57Zm-35.81-104.91c9.91-.37,19.23-3.68,29.32-1.33-.55-1.21-.79-1.77-1.06-2.32-4.08-8.36-8.38-16.6-12.02-25.17-1.22-2.87-3.4-4.25-6.56-4.23-6.31.05-12.61,0-18.92.02-1.07,0-2.18.02-3.2.28-2.15.54-3.75,1.71-3.9,4.19-.15,2.52.76,4.5,3.18,5.36,3.45,1.22,6.81,2.68,10.5,3.19,2.44.34,4.8,1.43,6.07,3.64,2.55,4.45.94,12.29-3.41,16.36Zm-60.82,40.42c-.09,2,.9,3.47,2.4,4.59,5.01,3.73,10.14,7.3,15.04,11.17,1.69,1.34,3.36,2.6,5.31,3.48,4.1,1.86,8.6.25,10.46-3.7,2.03-4.3-.04-8.8-4.36-10.95-6.71-3.34-13.61-6.23-20.39-9.39-4.27-1.99-8.48.5-8.45,4.8Zm35.18-2.51c3.12,0,5.94-2.47,6.56-5.58.52-2.6-.93-5.39-3.5-6.51-7.79-3.4-15.92-5.85-24-8.42-.59-.19-1.25-.2-1.87-.17-2.53.09-4.28,1.46-5.09,3.73-.86,2.38.25,4.29,2.7,5.71,6.2,3.6,12.99,5.96,19.41,9.1,1.9.93,3.66,2.37,5.81,2.15Zm14.18-27.33c-.18-1.73-.8-3.43-2.59-4.75-2.08-1.53-4.47-1.72-6.81-2.24-6.03-1.33-12.05-2.71-18.08-4.03-3.54-.77-6.43.69-7.45,3.69-.89,2.63.31,4.72,3.91,6.37,5.71,2.61,11.94,3.71,17.75,6.04,1.9.76,3.75,1.7,5.86,1.89,3.6.33,7.46-3.08,7.41-6.97Zm-.68-14.09c3.18.08,5.42-1.56,7.16-3.84,2.19-2.87,1.64-4.29-1.7-5.2-5.13-1.4-10.65-1.84-14.59-6.12-.46-.5-1.17-.38-1.8-.28-4.07.66-8.14,1.33-12.21,2.02-2.45.41-4.23,1.57-4.36,4.3-.13,2.65,1.64,3.74,3.83,4.52,2.74.98,5.66.8,8.45,1.38,5.08,1.05,10.14,2.15,15.21,3.22Z"/><path class="cls-1" d="m21.12,191.87c-2.59-.01-4.28-1.61-4.28-4.02,0-2.08,2.3-4.15,4.47-4.05,2.38.11,4.11,1.78,4.15,4,.04,2.83-1.3,4.09-4.34,4.08Z"/><path class="cls-1" d="m234.59,191.85c-3.13,0-4-.86-4.01-3.94-.01-2.49,1.51-4.1,3.92-4.14,2.3-.04,4.14,1.75,4.18,4.06.04,2.56-1.44,4.02-4.08,4.01Z"/></g></g></svg>