<?xml version="1.0" encoding="UTF-8"?><svg id="Calque_2" xmlns="http://www.w3.org/2000/svg" viewBox="0 0 71.14 53.67"><defs><style>.cls-1{fill:#fff;}</style></defs><g id="Calque_1-2"><g id="ZtKdJZ.tif"><path class="cls-1" d="m22.33,25.99c-.67,0-1.33-.03-2,0-1.91.11-3.45,1.45-3.73,3.23-.23,1.48,1.07,3.5,2.68,4.04.9.3,1.79.64,2.76.72.46.04.99.23.79.85-1.16,3.61-2.35,7.23-5.54,9.69-1.87,1.44-3.78,2.83-5.85,3.99-2.31,1.3-4.63,2.59-6.95,3.88-.33.18-.74.37-.64.81.12.51.61.47,1.03.46.16,0,.33-.05.49-.09,2.97-.75,5.94-1.5,8.85-2.5,7.52-2.57,13.49-6.74,15.66-14.83.09-.35.23-.72.65-.84,1.21-.38,3.33,1.26,3.22,2.49-.17,1.75-.48,3.47-1.02,5.16-.97,3.04-1.83,6.12-2.74,9.18-.15.5-.27.99.34,1.27.62.28.9-.17,1.18-.6.33-.52.67-1.04,1.02-1.55,2.35-3.38,4.94-6.63,6.56-10.45,2-4.7.64-9.45-4.14-11.97-3.95-2.08-8.19-2.85-12.6-2.94Zm31.71-2.68c4.57-.06,8.45-1.3,12.15-3.15.96-.48,1.88-1.06,2.8-1.62.37-.23.62-.59.41-1.05-.22-.49-.62-.25-.97-.18-1.17.25-2.35.46-3.52.73-3.3.78-6.65,1.15-10.01.57-3.65-.63-7.16-1.74-10.49-3.37-.73-.36-1.53-.75-2.38-.55-1,.23-1.9.71-2.16,1.81-.3,1.28.43,2.12,1.4,2.79,3.93,2.74,8.41,3.77,12.76,4.01ZM21.44,11.35c.67.03,1.33.07,2,.1.67.03,1.33.04,2,.08,1.47.07,2.29-.53,2.62-1.91.26-1.08-.37-2.12-1.59-2.6-1.29-.5-2.64-.67-4.02-.77-5.8-.43-10.98,1.25-15.7,4.5-2.49,1.71-4.59,3.79-6.36,6.21-.2.27-.61.58-.23.96.34.33.71.05,1.02-.13.89-.54,1.76-1.09,2.64-1.63,5.41-3.28,11.23-5.07,17.63-4.8ZM39.16.04c-2.73-.41-5.78,2.57-5.69,5.71.09,3.15,2.47,5.48,5.78,5.48,3.37,0,5.69-2.3,5.69-5.65,0-3.07-2.57-5.53-5.77-5.54Zm31.99,9.78c-.02-1.52-1.29-2.85-2.68-2.82-1.1.03-2.43,1.44-2.42,2.58.01,1.35,1.38,2.63,2.78,2.59,1.34-.04,2.34-1.05,2.32-2.35Z"/></g></g></svg>